<svg width="844" height="405" xmlns="http://www.w3.org/2000/svg"><style>.st0{fill:#ff8400}.st1,.st2{fill:none;stroke:#ff8400;stroke-width:3;stroke-miterlimit:10}.st2{fill:#00627f;stroke:#00627f;stroke-width:5}</style><title>background</title><path fill="none" id="canvas_background" d="M-1-1h846v407H-1z"/><title>Layer 1</title><g id="Слой_3"><g id="svg_2"><path id="svg_3" d="M745.5 206.8c1.3 15.7 1.5 31.5 4.8 46.7 1.7 7.5 4.1 14.9 7.7 21.6 1.8 3.4 3.8 6.6 6 9.7l7 9.4c4.6 6.4 9.2 12.7 14.2 18.6 2.5 2.9 5.1 5.7 8 8.3 2.8 2.6 5.8 4.9 9.1 7 3.2 2 6.6 3.9 10.2 5.3.9.4 1.8.7 2.7 1.1l1.3.5c.5.1 1 .3 1.5.5 1.9.8 3.7 1.8 5.4 2.9 3.4 2.2 6.3 4.9 8.9 7.9 1.3 1.5 2.5 3.1 3.5 4.8 1 1.7 1.9 3.5 2.3 5.5-1.2-3.8-3.8-6.8-6.5-9.6-2.8-2.7-5.9-5.1-9.2-7.1-1.7-1-3.4-1.8-5.2-2.4-.4-.1-.9-.3-1.4-.4l-1.5-.4c-1-.3-1.9-.6-2.9-.9-3.8-1.2-7.5-2.8-11.1-4.8-3.5-2-6.9-4.3-10-6.8-3.1-2.6-6-5.4-8.7-8.4-2.7-3-5.2-6.1-7.6-9.2-2.4-3.1-4.8-6.3-7.1-9.5l-7-9.5c-2.3-3.3-4.5-6.8-6.2-10.4-3.5-7.3-6-15.1-7.3-23-1.4-7.9-1.7-15.9-1.7-23.8s.4-15.8.8-23.6z" class="st0"/></g><g id="svg_4"><path id="svg_5" d="M718.7 193.6c-.2-2.3-.3-4.5-.4-6.8 0-2.3.1-4.6.5-6.9.4-2.3 1.2-4.7 2.8-6.7 1.6-2 4-3.5 6.5-4l.4-.1.5.1c2.6.7 5.3 1.4 7.7 1.8 1.2.2 2.3.1 3.5 0 1.2-.2 2.5-.5 3.7-.8 1.3-.3 2.6-.7 3.9-1.1l2-.6c.8-.2 1.6-.4 2.5-.4.9 0 1.9.1 2.8.5.9.4 1.8 1.1 2.4 1.9.6.8.9 1.7 1.2 2.5.1.4.2.8.2 1.3v1.3c-.1 1.6-.4 3-.8 4.3-.4 1.4-.8 2.7-1.2 4-.9 2.6-1.9 5.2-3.1 7.7-1.1 2.5-2.4 5-3.7 7.4-1.4 2.4-2.8 4.8-4.5 6.9 2.4-4.9 4.2-10.1 5.9-15.2.8-2.6 1.7-5.1 2.3-7.7l.9-3.9c.3-1.3.5-2.6.5-3.7 0-1-.3-2.1-.7-2.7-.5-.6-1.1-.8-2-.8-.5 0-1 .1-1.5.3-.6.2-1.3.4-1.9.6-1.3.4-2.6.8-4 1.2-1.3.4-2.7.8-4.3.9-1.5.2-3.1.2-4.6 0-1.5-.2-2.9-.6-4.2-1l-3.9-1.3h.8c-1.9.3-3.7 1.1-5 2.5-1.3 1.4-2.3 3.3-2.9 5.4-.6 2.1-1.1 4.2-1.4 6.5-.4 2.1-.6 4.4-.9 6.6z" class="st0"/></g><g id="svg_6"><path id="svg_7" d="M774 316.3c-3.7 1.6-7 4.2-9.1 7.5-2 3.4-2.9 7.4-2.5 11.2 1.3 7.8 2.4 16.4.2 24.6-.6 2.1-1.3 4-2.3 6-1 2-2.5 4-4.8 5.1-1.1.6-2.4.8-3.7.8-1.2 0-2.4-.2-3.5-.5-1.2-.3-2.7-1.2-3.5-2.6-.8-1.4-.8-2.9-.7-4.1.1-.6.2-1.2.4-1.8l.3-.9c.1-.3.2-.5.4-1l1.5-2.6c.2-.4.5-.8.6-1.2.2-.4.2-.7.3-1.1.1-.4.1-.9.2-1.3 0-.3 0-.4.1-.6v-.5c-.1-.7-.3-1.5-.6-2.1-.3-.6-.9-1.1-1-1.1-.1 0 .2 0 0 0-.2.1-.5.3-.9.6-.7.6-1.4 1.3-2.2 2L739 357c-.8.7-1.4 1.4-2.5 2.2-.5.4-1.3.8-2 .9-.6.2-1.2.2-1.9.3-1.2.1-2.5-.1-3.7-.5-.6-.2-1.3-.5-1.9-1-.6-.5-1.2-1.1-1.5-1.9-.4-.8-.5-1.8-.3-2.6.1-.8.5-1.5.8-2.1.7-1.1 1.4-1.9 2.2-2.7 1.5-1.5 3.1-2.8 4.6-4.1.7-.6 1.5-1.3 2-1.9.1-.1.1-.1.1-.2 0 0 0-.1.1-.1.1-.1.1-.3.2-.5.1-.3.2-.6.2-1 .1-1.5-.5-3.4-1.2-5.3-.6-1.9-1.3-3.8-2.1-5.5-.4-.9-.8-1.8-1.3-2.6-.2-.4-.5-.9-.7-1.3-.3-.5-.6-1.1-.8-1.7-.7-2.3-.6-4.5-.4-6.6.6-4.2 1.8-8.1 3.3-11.9 3-7.6 6.7-14.9 10.7-21.9-3.3 7.4-6.5 14.9-8.9 22.5-1.2 3.8-2.3 7.7-2.6 11.6-.2 1.9-.1 3.8.5 5.4.2.4.3.7.5 1.1.3.5.6.9.8 1.4.5.9 1 1.8 1.5 2.8.9 1.9 1.7 3.8 2.4 5.7.4 1 .7 2 1 3 .3 1.1.5 2.2.5 3.5 0 .6-.1 1.3-.3 2-.1.3-.2.6-.4 1-.1.1-.2.3-.3.5-.1.2-.2.3-.3.4-.8 1-1.6 1.7-2.3 2.4-1.5 1.4-3 2.7-4.3 4.1-.6.7-1.3 1.4-1.6 2-.4.7-.3 1-.3 1.1.1.2.5.6 1.2.8.7.2 1.5.3 2.2.3.4 0 .8-.1 1.1-.2.3-.1.4-.1.7-.3.6-.4 1.3-1.1 2-1.8l4.4-4.2c.7-.7 1.5-1.4 2.3-2.1a5 5 0 0 1 1.6-1.1c.4-.2.8-.4 1.4-.4.5-.1 1.1 0 1.6.1.9.3 1.6.8 2.1 1.3s.9 1.1 1.2 1.7c.6 1.2 1 2.4 1.1 3.7v1c0 .3-.1.7-.1.9-.1.5-.1 1.1-.3 1.7-.1.6-.3 1.2-.6 1.8-.3.6-.5 1.1-.8 1.5l-1.6 2.6s-.1.3-.2.4c-.1.2-.1.4-.2.6l-.3 1.2c-.1.8-.1 1.4.1 1.8.2.4.5.7 1.3.9 1.7.6 3.3.6 4.6 0 2.8-1.2 4.5-5.2 5.7-8.8 1.1-3.7 1.6-7.6 1.7-11.6 0-2 0-4-.2-6l-.3-3c-.1-1-.2-2-.3-3.1-.2-4.2 1-8.5 3.5-11.9 1.2-1.7 2.8-3.1 4.4-4.3 2.1-1.2 4-2.1 5.9-2.7z" class="st0"/></g><g id="svg_8"><path id="svg_9" d="M734.1 302.6c-2.7-5.8-5.6-11.3-8.5-16.9-.8-1.4-1.5-2.8-2.2-4.2-.7-1.4-1.5-2.8-2.2-4.2-1.4-2.9-2.9-5.6-3.9-8.9-1-3.2-1.2-6.5-1.1-9.8.1-3.3.7-6.5 1.5-9.6.8-3.1 1.9-6.1 3.2-9.1.7-1.5 1.4-2.9 2.2-4.2.8-1.4 1.7-2.7 2.9-3.8-1.1 1.2-1.8 2.6-2.5 4s-1.3 2.9-1.8 4.4c-1.1 3-1.9 6-2.5 9.1-.6 3.1-.9 6.2-.9 9.2 0 3.1.4 6.1 1.3 9 .5 1.4 1.2 2.7 1.9 4.1.7 1.4 1.4 2.8 2.2 4.2.8 1.4 1.4 2.8 2.2 4.2.7 1.4 1.4 2.8 2.1 4.3 1.3 2.9 2.6 5.8 3.6 8.9 1.1 3.1 2 6.2 2.5 9.3z" class="st0"/></g><g id="svg_10"><path id="svg_11" d="M719.5 242c-2.8.5-5.7.6-8.6.1-2.9-.5-5.8-1.9-7.9-4.2-1.1-1.1-1.9-2.5-2.5-3.9-.3-.7-.6-1.4-.8-2l-.8-1.9c-1.1-2.5-2.3-5-3.6-7.4-1.4-2.4-2.9-4.7-4.4-7.2-1.5-2.4-3-5-4.2-7.7-1.2-2.7-2.2-5.5-3-8.3-.4-1.4-.8-2.8-1.1-4.3-.3-1.5-.6-3-.7-4.7 0-.9 0-1.8.4-2.9.3-1.1 1.2-2.4 2.4-3.1 1.2-.7 2.4-.8 3.4-.8s1.9.3 2.8.6c1.7.6 3.4 1.7 4.5 3.2 1.2 1.4 1.9 3 2.3 4.5.5 1.5.8 3 1 4.4.2 1.4.5 2.7.8 4 .6 2.7 1.4 5.3 2.3 7.9.9 2.6 2 5.1 3.3 7.4 1.3 2.3 2.9 4.5 4.9 6.1 2 1.7 4.6 2.6 7.3 3 2.7.4 5.6.3 8.4 0-2.7.9-5.5 1.4-8.5 1.4-2.9 0-6-.7-8.6-2.4-2.6-1.7-4.6-4-6.3-6.4-1.7-2.4-3-5.1-4.2-7.7-1.2-2.7-2.1-5.4-2.9-8.2-.4-1.4-.8-2.8-1.1-4.2-.3-1.4-.6-2.7-1-3.8-.4-1.2-.9-2.2-1.6-2.9-.6-.8-1.4-1.3-2.4-1.6-.5-.2-1-.3-1.4-.3-.4 0-.7.1-.7.1 0 .1 0 0-.1.2-.1.3-.1.8-.1 1.3 0 1.1.2 2.4.5 3.7.3 1.3.6 2.6 1 4 .7 2.6 1.6 5.2 2.6 7.7s2.3 4.9 3.6 7.4c1.4 2.4 2.8 4.9 4 7.6 1.3 2.6 2.4 5.3 3.3 8.1.5 1.4.8 2.8 1.2 4 .4 1.2 1 2.4 1.7 3.4 1.5 2.1 3.8 3.6 6.4 4.4 2.7 1 5.6 1.3 8.4 1.4z" class="st0"/></g><g id="svg_12"><path id="svg_13" d="M709.3 218.8c2.5-3 4.6-6.4 5.6-10 1-3.6.8-7.4-.6-10.7-1.4-3.3-3.6-6.4-6.3-8.9-1.3-1.3-2.7-2.3-4.3-3.4-.8-.5-1.6-1-2.5-1.6-.9-.6-1.8-1.3-2.6-2.3-.8-.9-1.4-2-1.8-3.1-.4-1.1-.6-2.2-.8-3.3-.1-1.1-.1-2.3.1-3.5.2-1.2.6-2.5 1.7-3.7.6-.6 1.4-1 2.2-1.2.4-.1.8-.1 1.1-.1.4 0 .7 0 1 .1 1.3.3 2.3.7 3.3 1.3 1.9 1.1 3.5 2.4 5 3.8s2.9 3 4 4.8c1.1 1.8 2 3.6 2.7 5.5 1.3 3.9 1.8 7.9 1.7 11.8-.8-3.9-1.8-7.6-3.5-11.1-1.7-3.4-4-6.4-6.9-8.7-1.5-1.2-3-2.2-4.6-3-.8-.4-1.6-.7-2.2-.8-.3-.1-.6 0-.8 0-.2.1-.2.1-.3.2-.2.2-.5.9-.6 1.6-.1.7-.1 1.6 0 2.4.1.8.3 1.6.6 2.4.3.7.7 1.4 1.2 1.9.9 1.1 2.5 2.1 4.2 3.2 1.7 1.1 3.4 2.4 4.9 3.9 2.9 3 5.3 6.5 6.6 10.6.6 2 1 4.2.9 6.3-.1 2.1-.6 4.2-1.4 6.1-1.8 3.9-4.5 7.1-7.6 9.5z" class="st0"/></g><g id="svg_14"><path id="svg_15" d="M740.5 178.7c1.5-1.2 3-2.3 4.7-3.3.8-.5 1.7-.9 2.6-1.3.9-.4 1.8-.7 2.8-.8.5-.1 1-.1 1.6.1.3.1.5.2.8.4l.3.3c.2.3.2.4.2.5.1 1 0 2-.1 3-.3 1.9-.8 3.8-1.7 5.5.6-1.8.9-3.7 1-5.5.1-.9.1-1.9-.1-2.7 0-.1-.1-.2 0-.1l-.2-.2c-.1-.1-.3-.2-.5-.2-.4-.1-.8-.1-1.2 0-1.7.3-3.5 1.1-5.2 1.9-1.6.6-3.3 1.5-5 2.4z" class="st0"/></g><g id="svg_16"><path id="svg_17" d="M749.3 345.8c-1.6-3.4-2.6-7.1-3-10.9-.4-3.8-.2-7.7.5-11.4.8-3.8 2.1-7.4 3.9-10.8 1.8-3.4 4.1-6.4 6.9-9-2.1 3.1-4 6.3-5.5 9.7-.7 1.7-1.4 3.4-2 5.1-.6 1.7-1.1 3.5-1.4 5.3-.7 3.6-1 7.3-.9 10.9.2 3.7.7 7.4 1.5 11.1z" class="st0"/></g></g><g id="Слой_2"><g id="svg_18"><path id="svg_19" d="M643.3 58.8c-1.2 3-2.9 5.9-4.8 8.5-1.9 2.7-4.1 5.1-6.5 7.4-2.4 2.3-5 4.4-8.1 6.1-.8.4-1.5.8-2.4 1.1-.8.3-1.7.6-2.5.8l-2.5.6-2.5.5c-1.6.3-3.3.5-4.9.7-1.6.2-3.3.3-4.9.4-3.3.2-6.6.3-9.8.4-6.5.1-13-.1-19.5-.3l-19.4-.8-4.8-.2-2.4-.1h-2.2c-.6.1-1.4.2-2.2.4-.8.2-1.6.3-2.4.5-1.7.3-3.4.5-5.2.5-1.9 0-3.8-.5-5.5-1.4-1.7-.8-3.1-1.9-4.3-3.1-1.3-1.2-2.4-2.4-3.5-3.5l-3.3-3.6c-4.3-4.9-8.5-9.9-12.3-15.1 4.7 4.5 9.3 9.1 14.1 13.4l3.6 3.3c1.2 1.1 2.4 2.2 3.6 3.1 1.2.9 2.4 1.8 3.7 2.3 1.3.5 2.6.8 3.9.7 1.4 0 2.9-.3 4.4-.7l2.3-.6c.8-.2 1.6-.4 2.6-.6.2 0 .7-.1.8-.1h9.2c6.5.1 13 .3 19.5.5 6.5.3 12.9.5 19.4.6 6.4.1 12.9.1 19.1-.6l2.3-.3 2.3-.4c.8-.1 1.5-.3 2.2-.5.7-.3 1.4-.5 2.1-.8 2.8-1.3 5.4-3 7.9-5 2.5-1.9 4.9-4.1 7.1-6.5 1.1-1.2 2.2-2.4 3.1-3.7.9-1.2 1.8-2.6 2.7-3.9z" class="st0"/></g><g id="svg_20"><path id="svg_21" d="M507 58.5c2.4 7.5 5.8 14.6 10.3 21 1.1 1.6 2.2 3.1 3.5 4.5 1.3 1.4 2.7 2.6 4.2 3.7s3.1 2.1 4.8 3.3c.8.6 1.7 1.3 2.5 2.1s1.5 1.8 2.1 2.8c1.1 2.1 1.6 4.2 1.8 6.4.2 2.2-.1 4.4-.4 6.4-.8 4.1-2.1 7.9-3.4 11.7-1.3 3.7-2.8 7.5-4.1 11.1-1.3 3.5-2 7.1-2 10.7 0 1.8.1 3.6.5 5.3.3 1.6 1.1 3.1 1.8 3.6.4.3 1 .5 1.7.6.6.1 1.2 0 1.4-.1.1 0 0-.1 0 .1-.1.1 0 .1 0-.2-.1-.6-.4-1.6-.6-2.6-.5-2-.8-4.4-.6-6.6.1-2.2.6-4.4 1.4-6.4.8-2 1.8-4 3.3-5.7.7-.8 1.5-1.7 2.5-2.3.9-.7 1.9-1.3 3.2-1.7 1.3-.4 2.3-.4 3.2-.5.9-.1 1.9-.2 2.8-.4 1.9-.3 3.7-.8 5.5-1.3 3.6-1.1 7.2-2.6 10-4.9 2.9-2.3 4.7-5.7 5.6-9.4.5-1.9.7-3.8.8-5.7.1-1.9.1-3.9-.1-5.9.9 3.8 1.2 7.9.6 11.9-.3 2-.8 4-1.7 5.9-.8 1.9-2.1 3.6-3.6 5.1-3.1 2.9-6.8 4.7-10.6 6.2-1.9.7-3.9 1.3-5.8 1.8l-3 .6c-1 .2-2 .3-2.6.5-.6.2-1.3.7-1.9 1.2-.6.5-1.2 1.1-1.7 1.8-1 1.3-1.8 2.9-2.4 4.6-.6 1.7-.9 3.4-.9 5.1-.1 1.8.2 3.4.7 5.1.2.9.6 1.8.8 3.2.1.7.1 1.7-.3 2.7-.5 1-1.3 1.7-2 2.2-1.6.8-3 .9-4.3.7-1.3-.2-2.6-.6-3.8-1.4-1.3-.9-2.1-2.1-2.6-3.2-.6-1.1-.9-2.2-1.2-3.3-.5-2.2-.7-4.3-.7-6.4 0-4.3 1-8.5 2.5-12.3l4.3-11c1.4-3.6 2.7-7.3 3.5-10.9.4-1.8.6-3.6.5-5.3-.1-1.7-.4-3.5-1.1-4.9-1.2-2.9-4.9-4.7-8-7.4-1.6-1.3-3-2.8-4.3-4.4l-.9-1.2-.9-1.3c-.6-.8-1.1-1.7-1.6-2.6-4.5-7.2-7.3-14.8-8.7-22.6z" class="st0"/></g><g id="svg_22"><path id="svg_23" d="M664.3 60.5c1.6 6.3 2.4 12.8 2.5 19.4 0 6.6-.5 13.2-2 19.7-.7 3.2-1.7 6.5-3 9.6-1.3 3.1-2.9 6.1-4.8 9-2 2.8-4.3 5.4-6.9 7.7-.6.6-1.3 1.1-2 1.6-.8.6-1.7 1.1-2.5 1.5-1.8.8-3.6 1.2-4.4 1.6-.4.2-.7.4-.9.8-.2.3-.5.9-.7 1.5-.3 1.2-.5 2.6-.4 4.1.1 2.9.7 6 1.3 9.2l.5 2.4.1.6c0 .1 0 .2.1.3l.3.6c.1.2.3.4.6.7.3.3.6.6 1 1.2.2.3.5.7.6 1.3.1.6 0 1.4-.2 1.9-.2.6-.4.8-.6 1-.2.3-.4.5-.6.7-.9.8-1.8 1.2-2.7 1.6-.9.4-1.8.6-2.7.8-1.8.4-3.6.5-5.5.3-.9-.1-1.9-.3-2.9-.7-1-.4-2-1.1-2.7-2.2-.6-1-.9-1.9-1.2-2.7-.2-.9-.4-1.7-.5-2.6-.5-3.3-.7-6.6-.6-9.9.1-3.3.4-6.5.6-9.8l.8-9.7.4 4.9.3 4.9c.2 3.2.2 6.5.5 9.7.2 3.2.7 6.3 1.4 9.4.2.7.4 1.5.6 2.2.2.7.5 1.3.8 1.7.3.3.6.6 1.1.8.5.2 1.2.3 1.8.3 1.3.1 2.8-.1 4.1-.5.7-.2 1.3-.4 1.9-.7.6-.3 1.1-.6 1.4-.9l.2-.2s.1-.2 0 0c-.1.1-.1.5-.1.7 0 .2.1.3.1.3 0-.1-.3-.3-.6-.6s-.7-.7-1-1.1c-.3-.4-.7-1-.9-1.6l-.3-.9-.1-.6-.6-2.4c-.8-3.2-1.4-6.5-1.5-10-.1-1.8 0-3.6.6-5.6.3-1 .7-1.9 1.3-2.9.7-1 1.7-1.9 2.7-2.4 1-.5 1.9-.7 2.7-1 .8-.2 1.4-.4 2-.7.6-.3 1.1-.6 1.6-1 .6-.5 1.2-.9 1.8-1.4 2.3-1.9 4.4-4.2 6.2-6.7 3.6-4.9 6.1-10.8 7.9-16.8 1.7-6.1 2.8-12.4 3.3-18.8.4-6.7.3-13.1-.2-19.6z" class="st0"/></g><g id="svg_24"><path id="svg_25" d="M567.8 116.8c4.3 2.8 8.6 5.3 13.1 7.2 4.5 1.9 9.1 3.4 13.9 4.3 2.4.4 4.8.7 7.3.9 2.5.2 4.9.4 7.4.5 5 .2 10 .2 15.1.6-5 1.3-10 2.1-15.1 2.5-1.3.1-2.6.2-3.9.2h-3.8c-2.6-.1-5.2-.3-7.7-.8-5.2-.9-10.2-2.8-14.6-5.4-4.5-2.7-8.6-6-11.7-10z" class="st0"/></g><path id="svg_26" d="M663.3 21.5c-7.6-.1-13.3 4.9-17.5 8.5-4.5 3.9-7.5 6.4-8.5 11-1.3 5.9 1.1 12.6 6 16.5 6.2 4.9 14.9 4.5 19.8 1.3 2.4-1.6 2.8-3.2 5.5-4 4-1.2 7.1 1.2 10.8 2.3 8.1 2.4 19.3-1.4 21-6.5 1.8-5.6-4.8-9.5-13.9-13.4-3.9-1.7-9.6-8.7-11.5-10.7-4.5-4.8-8.2-5-11.7-5z" class="st1"/><g id="svg_27"><path id="svg_28" d="M651.7 26.4c2.5 1.6 4.7 3.6 6.6 5.8 1.9 2.3 3.5 4.7 4.7 7.5 1.3 2.8 1.9 5.7 2.3 8.6.3 2.9.3 5.8-.2 8.8-1.1-2.7-2-5.4-2.9-8.1-.9-2.6-1.8-5.2-2.8-7.6-1.1-2.5-2.4-4.9-3.7-7.4-1.4-2.5-2.7-4.9-4-7.6z" class="st0"/></g><g id="svg_29"><path id="svg_30" d="M60.9 381.5h-11L6.4 93.8H14l42.1 275.4L97.9 95.5h9.3l39.4 272.1 40.7-273.7h6.9l-42.8 287.7h-10l-39-266.3-41.5 266.2z" class="st2"/><path id="svg_31" d="M223.5 158.9v222.6h-5.9V158.9h5.9z" class="st2"/><path id="svg_32" d="M264.9 270.9l-14.2 25.4v85.2h-5.9V158.9h5.9v125.6l69.5-125.6h6.4l-58 105.3 62.8 117.3H325l-60.1-110.6z" class="st2"/><path id="svg_33" d="M357.9 158.9v222.6H352V158.9h5.9z" class="st2"/><path id="svg_34" d="M430 93.8c37.3 0 50.1 29.2 50.1 69.5v28.8c0 45.6-17.3 67.4-55.6 67.4H390v122.1h-7.6V93.8H430zm-5.5 157c33.8 0 48-17.7 48-58.4v-29.6c0-35.3-10-60.4-42.5-60.4h-40v148.4h34.5z" class="st2"/><path id="svg_35" d="M564.5 265.4v6.4h-55v103h65.4v6.7h-71.3V158.9h71.3v6.7h-65.4v99.9h55v-.1z" class="st2"/><path id="svg_36" d="M630.7 381.5V165.6h-40.6v-6.7h87.4v6.7h-40.9v215.9h-5.9z" class="st2"/></g></g></svg>